<svg width="22" height="22" viewBox="0 0 22 22" fill="none" xmlns="http://www.w3.org/2000/svg">
<path d="M11.0005 2.25399C13.8486 2.25399 14.186 2.26483 15.3107 2.31615C16.3507 2.36361 16.9155 2.53738 17.2914 2.68342C17.7893 2.87692 18.1446 3.1081 18.5179 3.48134C18.8911 3.85458 19.1223 4.20995 19.3158 4.7078C19.4618 5.08371 19.6356 5.6485 19.6831 6.68845C19.7344 7.81325 19.7452 8.15058 19.7452 10.9987C19.7452 13.8469 19.7344 14.1842 19.6831 15.3089C19.6356 16.3489 19.4618 16.9137 19.3158 17.2896C19.1223 17.7875 18.8911 18.1429 18.5179 18.5161C18.1446 18.8893 17.7893 19.1205 17.2914 19.314C16.9155 19.4601 16.3507 19.6338 15.3107 19.6813C14.1861 19.7326 13.8488 19.7434 11.0005 19.7434C8.1522 19.7434 7.81487 19.7326 6.69028 19.6813C5.65029 19.6338 5.0855 19.4601 4.70963 19.314C4.21174 19.1205 3.85637 18.8893 3.48313 18.5161C3.10989 18.1429 2.87871 17.7875 2.68525 17.2896C2.53917 16.9137 2.3654 16.3489 2.31794 15.309C2.26662 14.1842 2.25578 13.8469 2.25578 10.9987C2.25578 8.15058 2.26662 7.81325 2.31794 6.68849C2.3654 5.6485 2.53917 5.08371 2.68525 4.7078C2.87871 4.20995 3.10989 3.85458 3.48313 3.48134C3.85637 3.1081 4.21174 2.87692 4.70963 2.68342C5.0855 2.53738 5.65029 2.36361 6.69024 2.31615C7.81504 2.26483 8.15237 2.25399 11.0005 2.25399ZM11.0005 0.332031C8.10359 0.332031 7.74039 0.34431 6.60268 0.396221C5.46729 0.448047 4.69194 0.628336 4.01341 0.892039C3.31199 1.16463 2.71713 1.52936 2.12414 2.12235C1.53115 2.71534 1.16642 3.3102 0.893827 4.01163C0.630125 4.69015 0.449835 5.4655 0.39801 6.60089C0.346099 7.73856 0.333862 8.10181 0.333862 10.9987C0.333862 13.8956 0.346099 14.2589 0.39801 15.3966C0.449835 16.5319 0.630125 17.3073 0.893827 17.9858C1.16642 18.6872 1.53115 19.2821 2.12414 19.8751C2.71713 20.4681 3.31199 20.8328 4.01341 21.1054C4.69194 21.3691 5.46729 21.5494 6.60268 21.6012C7.74039 21.6531 8.10359 21.6654 11.0005 21.6654C13.8974 21.6654 14.2607 21.6531 15.3983 21.6012C16.5337 21.5494 17.3091 21.3691 17.9876 21.1054C18.689 20.8328 19.2839 20.4681 19.8769 19.8751C20.4699 19.2821 20.8346 18.6872 21.1072 17.9858C21.3709 17.3073 21.5512 16.5319 21.603 15.3966C21.6549 14.2589 21.6672 13.8956 21.6672 10.9987C21.6672 8.10181 21.6549 7.73856 21.603 6.60089C21.5512 5.4655 21.3709 4.69015 21.1072 4.01163C20.8346 3.3102 20.4699 2.71534 19.8769 2.12235C19.2839 1.52936 18.689 1.16463 17.9876 0.892039C17.3091 0.628336 16.5337 0.448047 15.3983 0.396221C14.2607 0.34431 13.8974 0.332031 11.0005 0.332031ZM11.0005 5.52122C7.97538 5.52122 5.52301 7.9736 5.52301 10.9987C5.52301 14.0238 7.97538 16.4762 11.0005 16.4762C14.0256 16.4762 16.478 14.0238 16.478 10.9987C16.478 7.9736 14.0256 5.52122 11.0005 5.52122ZM11.0005 14.5543C9.03684 14.5543 7.44493 12.9624 7.44493 10.9987C7.44493 9.03505 9.03684 7.44314 11.0005 7.44314C12.9642 7.44314 14.5561 9.03505 14.5561 10.9987C14.5561 12.9624 12.9642 14.5543 11.0005 14.5543ZM17.9744 5.30482C17.9744 6.01175 17.4013 6.58484 16.6944 6.58484C15.9875 6.58484 15.4144 6.01175 15.4144 5.30482C15.4144 4.59789 15.9875 4.02484 16.6944 4.02484C17.4013 4.02484 17.9744 4.59789 17.9744 5.30482Z" fill="#A6A6A6"/>
</svg>
