<svg width="21" height="20" viewBox="0 0 21 20" fill="none" xmlns="http://www.w3.org/2000/svg">
<path d="M5.46603 6.41016H1.451C1.27281 6.41016 1.12842 6.55461 1.12842 6.73274V19.6313C1.12842 19.8095 1.27281 19.9539 1.451 19.9539H5.46603C5.64423 19.9539 5.78861 19.8095 5.78861 19.6313V6.73274C5.78861 6.55461 5.64423 6.41016 5.46603 6.41016Z" fill="#A6A6A6"/>
<path d="M3.45948 0C1.99857 0 0.810059 1.18723 0.810059 2.64652C0.810059 4.10645 1.99857 5.29413 3.45948 5.29413C4.91922 5.29413 6.10677 4.10639 6.10677 2.64652C6.10683 1.18723 4.91922 0 3.45948 0Z" fill="#A6A6A6"/>
<path d="M15.6776 6.09375C14.065 6.09375 12.873 6.78698 12.1499 7.57465V6.73691C12.1499 6.55878 12.0055 6.41433 11.8273 6.41433H7.98225C7.80406 6.41433 7.65967 6.55878 7.65967 6.73691V19.6355C7.65967 19.8137 7.80406 19.9581 7.98225 19.9581H11.9885C12.1667 19.9581 12.3111 19.8137 12.3111 19.6355V13.2537C12.3111 11.1032 12.8952 10.2654 14.3943 10.2654C16.027 10.2654 16.1567 11.6085 16.1567 13.3643V19.6356C16.1567 19.8137 16.3011 19.9581 16.4793 19.9581H20.487C20.6652 19.9581 20.8096 19.8137 20.8096 19.6356V12.5605C20.8096 9.36272 20.1999 6.09375 15.6776 6.09375Z" fill="#A6A6A6"/>
</svg>
