<svg width="23" height="18" viewBox="0 0 23 18" fill="none" xmlns="http://www.w3.org/2000/svg">
<path d="M15.7954 0C13.323 0.0374505 11.375 2.17272 11.375 4.64512V5.24449C6.95463 4.45782 4.78192 3.25907 2.38442 0.749219C0.960921 3.52131 2.53426 5.84387 4.25744 7.11756C3.09614 7.11756 2.12218 6.96772 1.37296 6.29344C1.29806 6.25599 1.22312 6.29344 1.26057 6.36838C1.89739 8.69094 4.07011 10.3767 5.75584 10.8637C4.21995 10.8637 3.2085 11.0884 2.12214 10.4141C2.04724 10.3767 1.97229 10.4141 2.00974 10.489C2.83386 12.7741 4.48215 13.4859 6.87965 13.4859C5.6809 14.385 4.07011 15.284 1.03578 15.3589C0.923387 15.3589 0.848486 15.5088 0.960879 15.5837C2.08469 16.5202 4.85682 17.232 8.75272 17.232C15.1585 17.232 20.3656 11.5379 20.3656 4.49527V4.12069C21.377 3.7461 21.9389 2.84703 22.2386 1.94797C22.2386 1.91052 22.2011 1.87307 22.1636 1.87307L20.0284 2.62229C19.9909 2.62229 19.9535 2.54739 19.9909 2.5099C20.8901 1.79813 21.5643 0.899063 21.864 0.0374505C21.864 0.0374505 21.8266 0 21.7891 0C20.7776 0.412081 19.8037 0.82412 19.0545 1.04891C18.9421 1.08636 18.7922 1.08636 18.6799 1.01146C18.1929 0.749219 16.7319 0 15.7954 0Z" fill="#A6A6A6"/>
</svg>
