<svg width="24" height="16" viewBox="0 0 24 16" fill="none" xmlns="http://www.w3.org/2000/svg">
<path d="M22.3075 1.36936C21.4893 0.39674 19.9787 0 17.0938 0H6.62139C3.67041 0 2.1342 0.422332 1.31908 1.45783C0.524353 2.46745 0.524353 3.95504 0.524353 6.01391V9.93809C0.524353 13.9268 1.46729 15.9519 6.62139 15.9519H17.0938C19.5956 15.9519 20.982 15.6018 21.8788 14.7435C22.7986 13.8633 23.191 12.4262 23.191 9.93809V6.01391C23.191 3.84266 23.1295 2.34629 22.3075 1.36936ZM15.0764 8.51777L10.321 11.0031C10.2146 11.0587 10.0984 11.0863 9.98228 11.0863C9.85081 11.0863 9.71964 11.0509 9.60345 10.9805C9.38468 10.848 9.25109 10.6109 9.25109 10.3551V5.4003C9.25109 5.14497 9.38431 4.90807 9.60265 4.77543C9.82105 4.64279 10.0927 4.63373 10.3193 4.75145L15.0747 7.2208C15.3167 7.34641 15.4686 7.59619 15.469 7.8687C15.4693 8.14143 15.318 8.39157 15.0764 8.51777Z" fill="#A6A6A6"/>
</svg>
