<svg width="24" height="33" viewBox="0 0 24 33" fill="none" xmlns="http://www.w3.org/2000/svg">
<path d="M14.3997 16.9478C14.4056 16.9478 14.4114 16.9507 14.4173 16.9507C18.9141 16.9507 20.7973 13.0083 20.7973 10.5501C20.7973 7.0154 17.952 4.15245 14.4173 4.14951H6.39759V5.74819H14.3792H14.4144C17.0661 5.74819 19.1957 7.89834 19.1957 10.5472C19.1957 13.196 17.0661 15.3461 14.4144 15.3461H14.4114C14.4056 15.3461 14.4026 15.3461 14.3968 15.3461C14.3938 15.3461 14.3938 15.3461 14.3938 15.3461H4.79892H3.20026H3.16506V31.3447H1.59866V0.949219H0V31.3505V32.9492H4.00106H4.80186V16.9478H14.3997Z" fill="white"/>
<path d="M14.3977 0.949219H3.19824V13.7504H14.3977C16.1636 13.7504 17.598 12.3189 17.598 10.5501C17.598 8.79008 16.1958 7.36154 14.4358 7.3498H6.3985V10.5501H7.99716V8.95142H14.3977C15.2806 8.95142 15.9964 9.66716 15.9964 10.5501C15.9964 11.433 15.2806 12.1488 14.3977 12.1488H4.7969V2.5479H14.3977C18.8212 2.5479 22.3969 6.12366 22.3969 10.5472C22.3969 14.9707 18.8212 18.5464 14.3977 18.5464H6.3985V20.1451V32.9463H7.99716V20.148H14.3977C19.6777 20.148 23.9985 15.8272 23.9985 10.5472C23.9985 5.27005 19.6777 0.949219 14.3977 0.949219Z" fill="white"/>
</svg>
