<svg width="37" height="40" viewBox="0 0 37 40" fill="none" xmlns="http://www.w3.org/2000/svg">
<path d="M35.0339 32.4721C34.1615 33.3441 33.509 33.835 33.509 33.835C30.2849 36.418 26.1428 37.9751 21.6251 37.9751C11.3382 37.9751 3.00085 29.9221 3.00085 19.9859C3.00085 10.0498 11.3382 1.99676 21.6251 1.99676C26.1428 1.99676 30.2849 3.5502 33.509 6.13683C33.509 6.13683 34.408 6.85127 35.0301 7.49976L36.1111 5.7155L36.1073 5.71184C32.3749 2.17629 27.2617 0 21.6251 0C10.1964 0 0.933594 8.94695 0.933594 19.9859C0.933594 31.0249 10.1964 39.9719 21.6251 39.9719C27.2617 39.9719 32.3711 37.7956 36.1035 34.2637L36.1073 34.26L35.0339 32.4721Z" fill="white"/>
<path d="M34.0083 9.18377C33.5417 8.63786 32.51 7.7842 32.51 7.7842C29.5475 5.38076 25.5875 3.99219 21.6275 3.99219C12.486 3.99219 5.07422 11.1512 5.07422 19.9809C5.07422 28.8106 12.486 35.9697 21.6275 35.9697C25.5875 35.9697 29.5475 34.5811 32.51 32.1777C32.51 32.1777 33.5569 31.2837 34.0083 30.7781L32.9917 29.0964C32.5479 29.5214 31.4479 30.4264 31.4479 30.4264C28.7965 32.6686 25.1361 33.9766 21.6237 33.9692C13.6239 33.9509 7.13769 27.7042 7.13769 19.9773C7.13769 12.2503 13.6239 6.0036 21.6237 5.98528C25.1361 5.97796 28.7965 7.28593 31.4479 9.52816L31.3038 9.76997L30.4389 11.1988C28.2503 9.45122 25.4168 7.98571 21.6275 7.98571C14.7846 7.98571 9.21253 13.3678 9.21253 19.9773C9.21253 26.5867 14.7846 31.9688 21.6275 31.9688C25.4168 31.9688 28.2503 30.5033 30.4389 28.7557C30.4389 28.7557 31.6072 27.8287 31.9676 27.4038L30.9206 25.6744C30.9206 25.6744 27.2147 29.9501 21.6237 29.9721C15.9112 29.9977 11.276 25.4986 11.276 19.9773C11.276 14.4596 15.9074 9.96049 21.6237 9.98247C27.2147 10.0045 30.9206 14.2801 30.9206 14.2801L31.9676 12.5508L33.0676 10.7335L34.0083 9.18377Z" fill="white"/>
</svg>
