<svg width="37" height="40" viewBox="0 0 37 40" fill="none" xmlns="http://www.w3.org/2000/svg">
<path d="M18.4525 9.99885L29.0036 35.9736H31.2044L18.4525 4.57812L8.95312 27.9726H8.98307L8.97932 27.9799H23.8684V27.9763H23.8797L23.3557 26.6825L23.0787 25.9788H23.0712L18.475 14.6352L18.46 14.6755L18.4488 14.6572L14.661 23.9813H16.8655L18.4637 20.0376L20.8704 25.9788H11.9661L18.4525 9.99885Z" fill="white"/>
<path d="M36.0924 37.967L21.4878 2.00116H21.5102L20.6756 0.00366513L18.4748 0V0.00366513H18.4336H16.229L0 39.9719H2.2008H10.3715L11.1837 37.9707L11.9921 35.9732H23.0785L22.2625 33.972H12.8081H10.6073L9.79132 35.9732L8.98287 37.967H3.013L17.6176 2.00116H19.287L33.8916 37.967H27.9255L24.6879 29.9734H23.3629H9.92607L8.14446 29.9661L5.70412 35.9732H7.90492L9.52932 31.9782H23.2993L25.7247 37.967L26.5369 39.9719H34.7075H36.9083L36.0924 37.967Z" fill="white"/>
</svg>
